<svg width="162" height="36" viewBox="0 0 162 36" fill="none" xmlns="http://www.w3.org/2000/svg">
<path d="M0 8.92299C0 7.20671 0.3876 5.67372 1.1628 4.32403C1.95485 2.95767 3.02496 1.89957 4.37313 1.14974C5.73816 0.383247 7.26328 0 8.94849 0C10.9202 0 12.6475 0.499887 14.1305 1.49966C15.6135 2.49944 16.6499 3.88246 17.2398 5.64873H13.17C12.7655 4.81558 12.1925 4.19072 11.451 3.77415C10.7264 3.35758 9.88379 3.14929 8.92321 3.14929C7.89523 3.14929 6.97679 3.3909 6.16789 3.87413C5.37584 4.34069 4.75231 5.00721 4.2973 5.87368C3.85914 6.74015 3.64006 7.75659 3.64006 8.92299C3.64006 10.0727 3.85914 11.0892 4.2973 11.9723C4.75231 12.8388 5.37584 13.5136 6.16789 13.9968C6.97679 14.4634 7.89523 14.6967 8.92321 14.6967C9.88379 14.6967 10.7264 14.4884 11.451 14.0718C12.1925 13.6386 12.7655 13.0054 13.17 12.1723H17.2398C16.6499 13.9552 15.6135 15.3465 14.1305 16.3463C12.6644 17.3294 10.937 17.821 8.94849 17.821C7.26328 17.821 5.73816 17.4461 4.37313 16.6962C3.02496 15.9297 1.95485 14.8717 1.1628 13.522C0.3876 12.1723 0 10.6393 0 8.92299Z" fill="#6BED9F" fill-opacity="0.87"/>
<path d="M23.8014 0.224949V17.671H20.2625V0.224949H23.8014Z" fill="#6BED9F" fill-opacity="0.87"/>
<path d="M39.3051 0.224949V3.04931H34.6033V17.671H31.0644V3.04931H26.3626V0.224949H39.3051Z" fill="#6BED9F" fill-opacity="0.87"/>
<path d="M50.9874 17.671L47.0945 10.8726H45.4262V17.671H41.8872V0.224949H48.5101C49.8751 0.224949 51.0379 0.466562 51.9985 0.949786C52.9591 1.41635 53.6753 2.05787 54.1472 2.87435C54.6359 3.67417 54.8802 4.57397 54.8802 5.57374C54.8802 6.72349 54.5432 7.76492 53.8691 8.69804C53.195 9.6145 52.1923 10.2477 50.861 10.5976L55.0824 17.671H50.9874ZM45.4262 8.24814H48.3837C49.3443 8.24814 50.0605 8.02319 50.5324 7.57329C51.0042 7.10673 51.2402 6.46521 51.2402 5.64873C51.2402 4.84891 51.0042 4.23238 50.5324 3.79914C50.0605 3.34925 49.3443 3.1243 48.3837 3.1243H45.4262V8.24814Z" fill="#6BED9F" fill-opacity="0.87"/>
<path d="M61.5695 0.224949V11.0225C61.5695 12.2056 61.8812 13.1137 62.5048 13.7469C63.1283 14.3634 64.0046 14.6717 65.1337 14.6717C66.2796 14.6717 67.1644 14.3634 67.7879 13.7469C68.4114 13.1137 68.7232 12.2056 68.7232 11.0225V0.224949H72.2874V10.9975C72.2874 12.4805 71.9588 13.7386 71.3016 14.7717C70.6612 15.7881 69.7933 16.5546 68.6979 17.0712C67.6194 17.5877 66.4145 17.846 65.0831 17.846C63.7687 17.846 62.5722 17.5877 61.4936 17.0712C60.4319 16.5546 59.5893 15.7881 58.9658 14.7717C58.3423 13.7386 58.0305 12.4805 58.0305 10.9975V0.224949H61.5695Z" fill="#6BED9F" fill-opacity="0.87"/>
<path d="M86.273 17.671L82.456 11.7973L78.9929 17.671H74.9989L80.5601 8.873L74.9231 0.224949H78.9929L82.8099 6.07363L86.2477 0.224949H90.2417L84.7058 8.99797L90.3428 17.671H86.273Z" fill="#6BED9F" fill-opacity="0.87"/>
<path d="M111.067 0.224949V3.04931H106.365V17.671H102.826V3.04931H98.1242V0.224949H111.067Z" fill="#6BED9F" fill-opacity="0.87"/>
<path d="M117.188 3.04931V7.42333H123.128V10.1977H117.188V14.8217H123.886V17.671H113.649V0.199954H123.886V3.04931H117.188Z" fill="#6BED9F" fill-opacity="0.87"/>
<path d="M126.243 8.92299C126.243 7.20671 126.631 5.67372 127.406 4.32403C128.198 2.95767 129.268 1.89957 130.616 1.14974C131.981 0.383247 133.506 0 135.192 0C137.163 0 138.891 0.499887 140.374 1.49966C141.857 2.49944 142.893 3.88246 143.483 5.64873H139.413C139.009 4.81558 138.436 4.19072 137.694 3.77415C136.969 3.35758 136.127 3.14929 135.166 3.14929C134.138 3.14929 133.22 3.3909 132.411 3.87413C131.619 4.34069 130.995 5.00721 130.54 5.87368C130.102 6.74015 129.883 7.75659 129.883 8.92299C129.883 10.0727 130.102 11.0892 130.54 11.9723C130.995 12.8388 131.619 13.5136 132.411 13.9968C133.22 14.4634 134.138 14.6967 135.166 14.6967C136.127 14.6967 136.969 14.4884 137.694 14.0718C138.436 13.6386 139.009 13.0054 139.413 12.1723H143.483C142.893 13.9552 141.857 15.3465 140.374 16.3463C138.907 17.3294 137.18 17.821 135.192 17.821C133.506 17.821 131.981 17.4461 130.616 16.6962C129.268 15.9297 128.198 14.8717 127.406 13.522C126.631 12.1723 126.243 10.6393 126.243 8.92299Z" fill="#6BED9F" fill-opacity="0.87"/>
<path d="M161.142 0.224949V17.671H157.603V10.2477H150.044V17.671H146.505V0.224949H150.044V7.39833H157.603V0.224949H161.142Z" fill="#6BED9F" fill-opacity="0.87"/>
<path d="M8.00568 29.5184C8.00568 30.2884 7.7504 30.9088 7.23982 31.3794C6.72925 31.85 5.96338 32.0853 4.94224 32.0853H3.11195V35.9102H2.20331V26.9385H4.94224C5.95473 26.9385 6.71627 27.1738 7.22684 27.6444C7.74607 28.1151 8.00568 28.7397 8.00568 29.5184ZM4.94224 31.3152C6.36146 31.3152 7.07107 30.7163 7.07107 29.5184C7.07107 28.9194 6.90232 28.4659 6.56482 28.1578C6.22733 27.8498 5.68646 27.6958 4.94224 27.6958H3.11195V31.3152H4.94224Z" fill="#C9C9C9"/>
<path d="M14.3591 35.9102L12.1135 32.1623H10.439V35.9102H9.53031V26.9385H12.2563C13.2688 26.9385 14.0346 27.1781 14.5538 27.6573C15.0817 28.1365 15.3457 28.7654 15.3457 29.544C15.3457 30.1943 15.1553 30.7505 14.7745 31.2126C14.4024 31.6661 13.8486 31.9613 13.113 32.0982L15.4495 35.9102H14.3591ZM10.439 31.4308H12.2692C12.9788 31.4308 13.5111 31.2596 13.8659 30.9174C14.2293 30.5751 14.4111 30.1173 14.4111 29.544C14.4111 28.9536 14.238 28.5001 13.8918 28.1835C13.5457 27.8584 13.0005 27.6958 12.2563 27.6958H10.439V31.4308Z" fill="#C9C9C9"/>
<path d="M21.2248 36C20.3854 36 19.6239 35.8075 18.9402 35.4224C18.2566 35.0288 17.7157 34.4855 17.3176 33.7924C16.9282 33.0907 16.7335 32.2993 16.7335 31.4179C16.7335 30.5366 16.9282 29.7494 17.3176 29.0563C17.7157 28.3547 18.2566 27.8113 18.9402 27.4263C19.6239 27.0326 20.3854 26.8358 21.2248 26.8358C22.0729 26.8358 22.8387 27.0326 23.5224 27.4263C24.2061 27.8113 24.7426 28.3547 25.132 29.0563C25.5214 29.7494 25.7161 30.5366 25.7161 31.4179C25.7161 32.2993 25.5214 33.0907 25.132 33.7924C24.7426 34.4855 24.2061 35.0288 23.5224 35.4224C22.8387 35.8075 22.0729 36 21.2248 36ZM21.2248 35.2171C21.8998 35.2171 22.5056 35.063 23.0421 34.755C23.5786 34.447 24.0027 34.0063 24.3142 33.433C24.6258 32.8512 24.7815 32.1795 24.7815 31.4179C24.7815 30.6564 24.6258 29.989 24.3142 29.4157C24.0027 28.8424 23.5786 28.4017 23.0421 28.0937C22.5056 27.7856 21.8998 27.6316 21.2248 27.6316C20.5498 27.6316 19.944 27.7856 19.4075 28.0937C18.871 28.4017 18.4469 28.8424 18.1354 29.4157C17.8239 29.989 17.6681 30.6564 17.6681 31.4179C17.6681 32.1795 17.8239 32.8512 18.1354 33.433C18.4469 34.0063 18.871 34.447 19.4075 34.755C19.944 35.063 20.5498 35.2171 21.2248 35.2171Z" fill="#C9C9C9"/>
<path d="M30.0658 26.9385C31.0696 26.9385 31.9307 27.1182 32.649 27.4776C33.3672 27.837 33.9167 28.3546 34.2975 29.0306C34.6783 29.7066 34.8687 30.5109 34.8687 31.4436C34.8687 32.3677 34.6783 33.1678 34.2975 33.8437C33.9167 34.5111 33.3672 35.0245 32.649 35.3839C31.9307 35.7347 31.0696 35.9102 30.0658 35.9102H27.3788V26.9385H30.0658ZM30.0658 35.1657C31.3293 35.1657 32.2898 34.8406 32.9475 34.1903C33.6139 33.5314 33.947 32.6159 33.947 31.4436C33.947 30.2628 33.6139 29.3429 32.9475 28.6841C32.2898 28.0167 31.3293 27.683 30.0658 27.683H28.2874V35.1657H30.0658Z" fill="#C9C9C9"/>
<path d="M37.4136 26.9385V32.5859C37.4136 33.4758 37.6256 34.1347 38.0496 34.5625C38.4823 34.9903 39.0708 35.2042 39.815 35.2042C40.5592 35.2042 41.1391 34.9946 41.5544 34.5753C41.9785 34.1475 42.1905 33.4843 42.1905 32.5859V26.9385H43.0991V32.5731C43.0991 33.7111 42.7919 34.5668 42.1775 35.1401C41.5717 35.7134 40.7799 36 39.802 36C38.8242 36 38.028 35.7134 37.4136 35.1401C36.8078 34.5668 36.5049 33.7111 36.5049 32.5731V26.9385H37.4136Z" fill="#C9C9C9"/>
<path d="M50.435 26.9385V27.683H47.9167V35.9102H47.0081V27.683H44.4768V26.9385H50.435Z" fill="#C9C9C9"/>
<path d="M55.9457 36C55.1063 36 54.3447 35.8075 53.6611 35.4224C52.9774 35.0288 52.4366 34.4855 52.0385 33.7924C51.6491 33.0907 51.4544 32.2993 51.4544 31.4179C51.4544 30.5366 51.6491 29.7494 52.0385 29.0563C52.4366 28.3547 52.9774 27.8113 53.6611 27.4263C54.3447 27.0326 55.1063 26.8358 55.9457 26.8358C56.7938 26.8358 57.5596 27.0326 58.2433 27.4263C58.9269 27.8113 59.4635 28.3547 59.8529 29.0563C60.2423 29.7494 60.437 30.5366 60.437 31.4179C60.437 32.2993 60.2423 33.0907 59.8529 33.7924C59.4635 34.4855 58.9269 35.0288 58.2433 35.4224C57.5596 35.8075 56.7938 36 55.9457 36ZM55.9457 35.2171C56.6207 35.2171 57.2264 35.063 57.763 34.755C58.2995 34.447 58.7236 34.0063 59.0351 33.433C59.3466 32.8512 59.5024 32.1795 59.5024 31.4179C59.5024 30.6564 59.3466 29.989 59.0351 29.4157C58.7236 28.8424 58.2995 28.4017 57.763 28.0937C57.2264 27.7856 56.6207 27.6316 55.9457 27.6316C55.2707 27.6316 54.6649 27.7856 54.1284 28.0937C53.5918 28.4017 53.1678 28.8424 52.8563 29.4157C52.5447 29.989 52.389 30.6564 52.389 31.4179C52.389 32.1795 52.5447 32.8512 52.8563 33.433C53.1678 34.0063 53.5918 34.447 54.1284 34.755C54.6649 35.063 55.2707 35.2171 55.9457 35.2171Z" fill="#C9C9C9"/>
<path d="M64.8516 36C64.2544 36 63.7266 35.8973 63.2679 35.692C62.8179 35.4866 62.4631 35.2 62.2035 34.832C61.9439 34.4641 61.8054 34.0534 61.7881 33.5999H62.7487C62.792 34.0363 62.9867 34.4213 63.3328 34.755C63.679 35.0802 64.1852 35.2427 64.8516 35.2427C65.466 35.2427 65.9506 35.0887 66.3054 34.7807C66.6689 34.4641 66.8506 34.0662 66.8506 33.587C66.8506 33.202 66.7511 32.8939 66.552 32.6629C66.353 32.4233 66.1064 32.2479 65.8121 32.1367C65.5179 32.0169 65.1112 31.8885 64.5919 31.7516C63.9862 31.5891 63.5059 31.4308 63.1511 31.2767C62.7963 31.1227 62.4934 30.8831 62.2424 30.558C61.9915 30.2328 61.866 29.7922 61.866 29.236C61.866 28.7739 61.9872 28.3632 62.2295 28.0038C62.4718 27.6359 62.8136 27.3492 63.2549 27.1439C63.6963 26.9385 64.2025 26.8358 64.7737 26.8358C65.6131 26.8358 66.2881 27.0412 66.7987 27.4519C67.3179 27.8541 67.6165 28.376 67.6943 29.0178H66.7078C66.6472 28.6499 66.4439 28.3247 66.0977 28.0423C65.7516 27.7514 65.2843 27.6059 64.6958 27.6059C64.1506 27.6059 63.6963 27.7514 63.3328 28.0423C62.9694 28.3247 62.7876 28.714 62.7876 29.2103C62.7876 29.5868 62.8871 29.8906 63.0862 30.1216C63.2852 30.3526 63.5319 30.528 63.8261 30.6478C64.129 30.7676 64.5357 30.896 65.0463 31.0329C65.6347 31.1955 66.1107 31.358 66.4742 31.5206C66.8376 31.6746 67.1448 31.9142 67.3958 32.2394C67.6467 32.5645 67.7722 33.0009 67.7722 33.5485C67.7722 33.9678 67.6597 34.3657 67.4347 34.7422C67.2097 35.1187 66.8766 35.4224 66.4352 35.6535C65.9939 35.8845 65.466 36 64.8516 36Z" fill="#C9C9C9"/>
<path d="M73.9988 27.6701V31.02H77.4387V31.7645H73.9988V35.1657H77.8281V35.9102H73.0902V26.9257H77.8281V27.6701H73.9988Z" fill="#C9C9C9"/>
<path d="M88.4897 26.9385V27.683H85.9715V35.9102H85.0628V27.683H82.5316V26.9385H88.4897Z" fill="#C9C9C9"/>
<path d="M90.8332 27.6701V31.02H94.2731V31.7645H90.8332V35.1657H94.6625V35.9102H89.9245V26.9257H94.6625V27.6701H90.8332Z" fill="#C9C9C9"/>
<path d="M96.0375 31.4179C96.0375 30.5366 96.2322 29.7494 96.6217 29.0563C97.0111 28.3547 97.5433 27.8113 98.2183 27.4263C98.8933 27.0326 99.6462 26.8358 100.477 26.8358C101.489 26.8358 102.355 27.0754 103.073 27.5546C103.8 28.0252 104.328 28.6926 104.657 29.5569H103.592C103.333 28.9493 102.935 28.4744 102.398 28.1322C101.87 27.7899 101.23 27.6188 100.477 27.6188C99.8106 27.6188 99.2091 27.7728 98.6726 28.0808C98.1447 28.3889 97.7293 28.8338 97.4265 29.4157C97.1236 29.989 96.9721 30.6564 96.9721 31.4179C96.9721 32.1795 97.1236 32.8469 97.4265 33.4202C97.7293 33.9935 98.1447 34.4341 98.6726 34.7422C99.2091 35.0502 99.8106 35.2042 100.477 35.2042C101.23 35.2042 101.87 35.0374 102.398 34.7037C102.935 34.3614 103.333 33.8908 103.592 33.2918H104.657C104.328 34.1475 103.8 34.8106 103.073 35.2812C102.346 35.7519 101.481 35.9872 100.477 35.9872C99.6462 35.9872 98.8933 35.7946 98.2183 35.4096C97.5433 35.016 97.0111 34.4726 96.6217 33.7796C96.2322 33.0865 96.0375 32.2993 96.0375 31.4179Z" fill="#C9C9C9"/>
<path d="M113.308 35.9102H112.4L107.376 28.3632V35.9102H106.467V26.9385H107.376L112.4 34.4726V26.9385H113.308V35.9102Z" fill="#C9C9C9"/>
<path d="M119.442 36C118.603 36 117.841 35.8075 117.158 35.4224C116.474 35.0288 115.933 34.4855 115.535 33.7924C115.146 33.0907 114.951 32.2993 114.951 31.4179C114.951 30.5366 115.146 29.7494 115.535 29.0563C115.933 28.3547 116.474 27.8113 117.158 27.4263C117.841 27.0326 118.603 26.8358 119.442 26.8358C120.29 26.8358 121.056 27.0326 121.74 27.4263C122.423 27.8113 122.96 28.3547 123.349 29.0563C123.739 29.7494 123.933 30.5366 123.933 31.4179C123.933 32.2993 123.739 33.0907 123.349 33.7924C122.96 34.4855 122.423 35.0288 121.74 35.4224C121.056 35.8075 120.29 36 119.442 36ZM119.442 35.2171C120.117 35.2171 120.723 35.063 121.259 34.755C121.796 34.447 122.22 34.0063 122.532 33.433C122.843 32.8512 122.999 32.1795 122.999 31.4179C122.999 30.6564 122.843 29.989 122.532 29.4157C122.22 28.8424 121.796 28.4017 121.259 28.0937C120.723 27.7856 120.117 27.6316 119.442 27.6316C118.767 27.6316 118.161 27.7856 117.625 28.0937C117.088 28.4017 116.664 28.8424 116.353 29.4157C116.041 29.989 115.885 30.6564 115.885 31.4179C115.885 32.1795 116.041 32.8512 116.353 33.433C116.664 34.0063 117.088 34.447 117.625 34.755C118.161 35.063 118.767 35.2171 119.442 35.2171Z" fill="#C9C9C9"/>
<path d="M126.505 35.1786H129.763V35.9102H125.596V26.9385H126.505V35.1786Z" fill="#C9C9C9"/>
<path d="M135.136 36C134.296 36 133.535 35.8075 132.851 35.4224C132.167 35.0288 131.627 34.4855 131.228 33.7924C130.839 33.0907 130.644 32.2993 130.644 31.4179C130.644 30.5366 130.839 29.7494 131.228 29.0563C131.627 28.3547 132.167 27.8113 132.851 27.4263C133.535 27.0326 134.296 26.8358 135.136 26.8358C135.984 26.8358 136.75 27.0326 137.433 27.4263C138.117 27.8113 138.653 28.3547 139.043 29.0563C139.432 29.7494 139.627 30.5366 139.627 31.4179C139.627 32.2993 139.432 33.0907 139.043 33.7924C138.653 34.4855 138.117 35.0288 137.433 35.4224C136.75 35.8075 135.984 36 135.136 36ZM135.136 35.2171C135.811 35.2171 136.416 35.063 136.953 34.755C137.489 34.447 137.913 34.0063 138.225 33.433C138.537 32.8512 138.692 32.1795 138.692 31.4179C138.692 30.6564 138.537 29.989 138.225 29.4157C137.913 28.8424 137.489 28.4017 136.953 28.0937C136.416 27.7856 135.811 27.6316 135.136 27.6316C134.461 27.6316 133.855 27.7856 133.318 28.0937C132.782 28.4017 132.358 28.8424 132.046 29.4157C131.735 29.989 131.579 30.6564 131.579 31.4179C131.579 32.1795 131.735 32.8512 132.046 33.433C132.358 34.0063 132.782 34.447 133.318 34.755C133.855 35.063 134.461 35.2171 135.136 35.2171Z" fill="#C9C9C9"/>
<path d="M148.429 29.5569C148.169 28.9664 147.771 28.5044 147.235 28.1707C146.707 27.8284 146.084 27.6573 145.366 27.6573C144.691 27.6573 144.085 27.8113 143.548 28.1193C143.012 28.4274 142.588 28.868 142.276 29.4413C141.965 30.0061 141.809 30.6649 141.809 31.4179C141.809 32.1709 141.965 32.834 142.276 33.4073C142.588 33.9806 143.012 34.4213 143.548 34.7293C144.085 35.0374 144.691 35.1914 145.366 35.1914C145.997 35.1914 146.564 35.0588 147.066 34.7935C147.577 34.5197 147.983 34.1347 148.286 33.6384C148.598 33.1335 148.775 32.5474 148.818 31.88H145.002V31.1484H149.779V31.803C149.736 32.5902 149.519 33.3047 149.13 33.9464C148.741 34.5796 148.217 35.0802 147.559 35.4481C146.91 35.816 146.179 36 145.366 36C144.526 36 143.765 35.8075 143.081 35.4224C142.397 35.0288 141.856 34.4855 141.458 33.7924C141.069 33.0907 140.874 32.2993 140.874 31.4179C140.874 30.5366 141.069 29.7494 141.458 29.0563C141.856 28.3547 142.397 27.8113 143.081 27.4263C143.765 27.0326 144.526 26.8358 145.366 26.8358C146.335 26.8358 147.183 27.0754 147.91 27.5546C148.637 28.0338 149.165 28.7012 149.493 29.5569H148.429Z" fill="#C9C9C9"/>
<path d="M152.352 26.9385V35.9102H151.443V26.9385H152.352Z" fill="#C9C9C9"/>
<path d="M159.667 33.7796H155.539L154.747 35.9102H153.787L157.097 27.054H158.122L161.419 35.9102H160.459L159.667 33.7796ZM159.394 33.0351L157.603 28.1835L155.812 33.0351H159.394Z" fill="#C9C9C9"/>
</svg>
