<svg width="151" height="32" viewBox="0 0 151 32" fill="none" xmlns="http://www.w3.org/2000/svg">
<path d="M0.0227273 31V7.72727H9.20455C10.9697 7.72727 12.4735 8.06439 13.7159 8.73864C14.9583 9.4053 15.9053 10.3333 16.5568 11.5227C17.2159 12.7045 17.5455 14.0682 17.5455 15.6136C17.5455 17.1591 17.2121 18.5227 16.5455 19.7045C15.8788 20.8864 14.9129 21.8068 13.6477 22.4659C12.3902 23.125 10.8674 23.4545 9.07955 23.4545H3.22727V19.5114H8.28409C9.23106 19.5114 10.0114 19.3485 10.625 19.0227C11.2462 18.6894 11.7083 18.2311 12.0114 17.6477C12.322 17.0568 12.4773 16.3788 12.4773 15.6136C12.4773 14.8409 12.322 14.1667 12.0114 13.5909C11.7083 13.0076 11.2462 12.5568 10.625 12.2386C10.0038 11.9129 9.21591 11.75 8.26136 11.75H4.94318V31H0.0227273ZM42.1278 19.3636C42.1278 21.9015 41.6468 24.0606 40.6847 25.8409C39.7301 27.6212 38.4271 28.9811 36.7756 29.9205C35.1316 30.8523 33.2831 31.3182 31.2301 31.3182C29.1619 31.3182 27.3059 30.8485 25.6619 29.9091C24.018 28.9697 22.7188 27.6098 21.7642 25.8295C20.8097 24.0492 20.3324 21.8939 20.3324 19.3636C20.3324 16.8258 20.8097 14.6667 21.7642 12.8864C22.7188 11.1061 24.018 9.75 25.6619 8.81818C27.3059 7.87879 29.1619 7.40909 31.2301 7.40909C33.2831 7.40909 35.1316 7.87879 36.7756 8.81818C38.4271 9.75 39.7301 11.1061 40.6847 12.8864C41.6468 14.6667 42.1278 16.8258 42.1278 19.3636ZM37.1392 19.3636C37.1392 17.7197 36.893 16.3333 36.4006 15.2045C35.9157 14.0758 35.2301 13.2197 34.3438 12.6364C33.4574 12.053 32.4195 11.7614 31.2301 11.7614C30.0407 11.7614 29.0028 12.053 28.1165 12.6364C27.2301 13.2197 26.5407 14.0758 26.0483 15.2045C25.5634 16.3333 25.321 17.7197 25.321 19.3636C25.321 21.0076 25.5634 22.3939 26.0483 23.5227C26.5407 24.6515 27.2301 25.5076 28.1165 26.0909C29.0028 26.6742 30.0407 26.9659 31.2301 26.9659C32.4195 26.9659 33.4574 26.6742 34.3438 26.0909C35.2301 25.5076 35.9157 24.6515 36.4006 23.5227C36.893 22.3939 37.1392 21.0076 37.1392 19.3636ZM45.7727 31V7.72727H50.6932V17.9886H51L59.375 7.72727H65.2727L56.6364 18.1477L65.375 31H59.4886L53.1136 21.4318L50.6932 24.3864V31H45.7727ZM67.8352 31V7.72727H83.517V11.7841H72.7557V17.3295H82.7102V21.3864H72.7557V26.9432H83.5625V31H67.8352ZM73.9716 5.47727L76.3807 0.306818H80.858L77.392 5.47727H73.9716ZM95.679 31H87.429V7.72727H95.7472C98.0881 7.72727 100.103 8.19318 101.793 9.125C103.482 10.0492 104.781 11.3788 105.69 13.1136C106.607 14.8485 107.065 16.9242 107.065 19.3409C107.065 21.7652 106.607 23.8485 105.69 25.5909C104.781 27.3333 103.474 28.6705 101.77 29.6023C100.073 30.5341 98.0426 31 95.679 31ZM92.3494 26.7841H95.4744C96.929 26.7841 98.1525 26.5265 99.1449 26.0114C100.145 25.4886 100.895 24.6818 101.395 23.5909C101.902 22.4924 102.156 21.0758 102.156 19.3409C102.156 17.6212 101.902 16.2159 101.395 15.125C100.895 14.0341 100.149 13.2311 99.1562 12.7159C98.1638 12.2008 96.9403 11.9432 95.4858 11.9432H92.3494V26.7841ZM110.71 31V7.72727H126.392V11.7841H115.631V17.3295H125.585V21.3864H115.631V26.9432H126.438V31H110.71ZM134.918 7.72727L139.611 15.6591H139.793L144.509 7.72727H150.065L142.963 19.3636L150.224 31H144.565L139.793 23.0568H139.611L134.838 31H129.202L136.486 19.3636L129.338 7.72727H134.918Z" fill="white"/>
</svg>
